<?xml version="1.0" encoding="UTF-8" standalone="no"?>
<!-- Created with Inkscape (http://www.inkscape.org/) -->

<svg
   width="16"
   height="16"
   viewBox="0 0 16 16"
   version="1.1"
   id="svg1"
   sodipodi:docname="search_list.svg"
   inkscape:version="1.4 (e7c3feb100, 2024-10-09)"
   xml:space="preserve"
   xmlns:inkscape="http://www.inkscape.org/namespaces/inkscape"
   xmlns:sodipodi="http://sodipodi.sourceforge.net/DTD/sodipodi-0.dtd"
   xmlns="http://www.w3.org/2000/svg"
   xmlns:svg="http://www.w3.org/2000/svg"><sodipodi:namedview
     id="namedview1"
     pagecolor="#ffffff"
     bordercolor="#000000"
     borderopacity="0.25"
     inkscape:showpageshadow="2"
     inkscape:pageopacity="0.0"
     inkscape:pagecheckerboard="0"
     inkscape:deskcolor="#d1d1d1"
     inkscape:document-units="px"
     showgrid="true"
     inkscape:zoom="5.1158537"
     inkscape:cx="-40.657926"
     inkscape:cy="-8.8939213"
     inkscape:window-width="1920"
     inkscape:window-height="1050"
     inkscape:window-x="3840"
     inkscape:window-y="0"
     inkscape:window-maximized="1"
     inkscape:current-layer="layer1"
     showguides="true"><inkscape:grid
       id="grid1"
       units="px"
       originx="0"
       originy="0"
       spacingx="1"
       spacingy="1"
       empcolor="#0099e5"
       empopacity="0.30196078"
       color="#0099e5"
       opacity="0.14901961"
       empspacing="4"
       enabled="true"
       visible="true" /></sodipodi:namedview><defs
     id="defs1"><inkscape:path-effect
       effect="fillet_chamfer"
       id="path-effect46"
       is_visible="true"
       lpeversion="1"
       nodesatellites_param="F,0,0,1,0,0,0,1 @ F,0,0,1,0,0,0,1 @ F,0,0,1,0,0,0,1 @ F,0,0,1,0,0,0,1"
       radius="0"
       unit="px"
       method="auto"
       mode="F"
       chamfer_steps="1"
       flexible="false"
       use_knot_distance="true"
       apply_no_radius="true"
       apply_with_radius="true"
       only_selected="false"
       hide_knots="false" /><inkscape:path-effect
       effect="fillet_chamfer"
       id="path-effect41"
       is_visible="true"
       lpeversion="1"
       nodesatellites_param="F,0,0,1,0,0.5,0,1 @ F,0,0,1,0,0.5,0,1 @ F,0,0,1,0,0.5,0,1 @ F,0,0,1,0,0.5,0,1 @ F,0,0,1,0,0.5,0,1 @ F,0,0,1,0,0.5,0,1"
       radius="0.5"
       unit="px"
       method="auto"
       mode="F"
       chamfer_steps="1"
       flexible="false"
       use_knot_distance="true"
       apply_no_radius="true"
       apply_with_radius="true"
       only_selected="false"
       hide_knots="false" /><inkscape:path-effect
       effect="mirror_symmetry"
       start_point="3.4183552,5"
       end_point="15,5"
       center_point="9.2091776,5"
       id="path-effect40"
       is_visible="true"
       lpeversion="1.2"
       lpesatellites=""
       mode="free"
       discard_orig_path="false"
       fuse_paths="false"
       oposite_fuse="false"
       split_items="false"
       split_open="false"
       link_styles="false" /><inkscape:path-effect
       effect="fillet_chamfer"
       id="path-effect39"
       is_visible="true"
       lpeversion="1"
       nodesatellites_param="F,0,0,1,0,0.5,0,1 @ F,0,0,1,0,0.5,0,1 @ F,0,0,1,0,0.5,0,1 @ F,0,0,1,0,0.5,0,1 @ F,0,0,1,0,0.5,0,1 @ F,0,0,1,0,0.5,0,1"
       radius="0.5"
       unit="px"
       method="auto"
       mode="F"
       chamfer_steps="1"
       flexible="false"
       use_knot_distance="true"
       apply_no_radius="true"
       apply_with_radius="true"
       only_selected="false"
       hide_knots="false" /><inkscape:path-effect
       effect="fillet_chamfer"
       id="path-effect38"
       is_visible="true"
       lpeversion="1"
       nodesatellites_param="F,0,0,1,0,0,0,1 @ F,0,0,1,0,0,0,1 @ F,0,0,1,0,0,0,1 @ F,0,0,1,0,0,0,1 | F,0,0,1,0,0,0,1 @ F,0,0,1,0,0,0,1 @ F,0,0,1,0,0,0,1 @ F,0,0,1,0,0,0,1"
       radius="1"
       unit="px"
       method="auto"
       mode="F"
       chamfer_steps="1"
       flexible="false"
       use_knot_distance="true"
       apply_no_radius="true"
       apply_with_radius="true"
       only_selected="false"
       hide_knots="false" /><inkscape:path-effect
       effect="mirror_symmetry"
       start_point="3,4"
       end_point="15,4"
       center_point="9,4"
       id="path-effect37"
       is_visible="true"
       lpeversion="1.2"
       lpesatellites=""
       mode="free"
       discard_orig_path="false"
       fuse_paths="false"
       oposite_fuse="false"
       split_items="false"
       split_open="false"
       link_styles="false" /><inkscape:path-effect
       effect="mirror_symmetry"
       start_point="8,0"
       end_point="8,9"
       center_point="8,4.5"
       id="path-effect36"
       is_visible="true"
       lpeversion="1.2"
       lpesatellites=""
       mode="free"
       discard_orig_path="false"
       fuse_paths="false"
       oposite_fuse="false"
       split_items="false"
       split_open="false"
       link_styles="false" /><inkscape:path-effect
       effect="mirror_symmetry"
       start_point="12.933222,12.362634"
       end_point="12.933222,19.82211"
       center_point="12.933222,16.092372"
       id="path-effect35"
       is_visible="true"
       lpeversion="1.2"
       lpesatellites=""
       mode="free"
       discard_orig_path="false"
       fuse_paths="false"
       oposite_fuse="false"
       split_items="false"
       split_open="false"
       link_styles="false" /><inkscape:path-effect
       effect="mirror_symmetry"
       start_point="-0.1742155,6.6237859"
       end_point="4.8257845,6.6237859"
       center_point="2.3257845,6.6237859"
       id="path-effect34"
       is_visible="true"
       lpeversion="1.2"
       lpesatellites=""
       mode="free"
       discard_orig_path="false"
       fuse_paths="false"
       oposite_fuse="false"
       split_items="false"
       split_open="false"
       link_styles="false" /><inkscape:path-effect
       effect="mirror_symmetry"
       start_point="-7.6666669,15.624056"
       end_point="2.9999998,14.422205"
       center_point="-2.3333335,15.023131"
       id="path-effect33"
       is_visible="true"
       lpeversion="1.2"
       lpesatellites=""
       mode="free"
       discard_orig_path="false"
       fuse_paths="false"
       oposite_fuse="false"
       split_items="false"
       split_open="false"
       link_styles="false" /><inkscape:path-effect
       effect="mirror_symmetry"
       start_point="8,1"
       end_point="8,15.02602"
       center_point="8,8.01301"
       id="path-effect32"
       is_visible="true"
       lpeversion="1.2"
       lpesatellites=""
       mode="free"
       discard_orig_path="false"
       fuse_paths="false"
       oposite_fuse="false"
       split_items="false"
       split_open="false"
       link_styles="false" /><inkscape:path-effect
       effect="fillet_chamfer"
       id="path-effect28"
       is_visible="true"
       lpeversion="1"
       nodesatellites_param="F,0,0,1,0,1,0,1 @ F,0,0,1,0,1,0,1 @ F,0,0,1,0,0,0,1 @ F,0,0,1,0,0,0,1 | F,0,0,1,0,1,0,1 @ F,0,0,1,0,1,0,1 @ F,0,0,1,0,0,0,1 @ F,0,0,1,0,0,0,1"
       radius="1"
       unit="px"
       method="auto"
       mode="F"
       chamfer_steps="1"
       flexible="false"
       use_knot_distance="true"
       apply_no_radius="true"
       apply_with_radius="true"
       only_selected="false"
       hide_knots="false" /><inkscape:path-effect
       effect="mirror_symmetry"
       start_point="0,8"
       end_point="16,8"
       center_point="8,8"
       id="path-effect27"
       is_visible="true"
       lpeversion="1.2"
       lpesatellites=""
       mode="free"
       discard_orig_path="false"
       fuse_paths="false"
       oposite_fuse="false"
       split_items="false"
       split_open="false"
       link_styles="false" /><inkscape:path-effect
       effect="fillet_chamfer"
       id="path-effect18"
       is_visible="true"
       lpeversion="1"
       nodesatellites_param="F,0,0,1,0,1,0,1 @ F,0,0,1,0,1,0,1 @ F,0,0,1,0,1,0,1"
       radius="1"
       unit="px"
       method="auto"
       mode="F"
       chamfer_steps="1"
       flexible="false"
       use_knot_distance="true"
       apply_no_radius="true"
       apply_with_radius="true"
       only_selected="false"
       hide_knots="false" /><inkscape:path-effect
       effect="fillet_chamfer"
       id="path-effect16"
       is_visible="true"
       lpeversion="1"
       nodesatellites_param="F,0,0,1,0,1,0,1 @ F,0,0,1,0,1,0,1 @ F,0,0,1,0,1,0,1"
       radius="1"
       unit="px"
       method="auto"
       mode="F"
       chamfer_steps="1"
       flexible="false"
       use_knot_distance="true"
       apply_no_radius="true"
       apply_with_radius="true"
       only_selected="false"
       hide_knots="false" /></defs><g
     inkscape:label="Layer 1"
     inkscape:groupmode="layer"
     id="layer1"><path
       d="m 13.580078,7.5 c 0.160009,0.3148208 0.286041,0.6491115 0.369141,1 h 0.515625 c 0.277,0 0.5,-0.223 0.5,-0.5 0,-0.277 -0.223,-0.5 -0.5,-0.5 z m 0.166016,3.25 c -0.09214,0.198538 -0.189054,0.395233 -0.28125,0.59375 L 13.871094,11.75 H 14.5 c 0.277,0 0.5,-0.223 0.5,-0.5 0,-0.277 -0.223,-0.5 -0.5,-0.5 z"
       style="stroke-linecap:round"
       id="path67" /><path
       d="M 1.5,1 C 1.223,1 1,1.223 1,1.5 1,1.777 1.223,2 1.5,2 h 13 C 14.777,2 15,1.777 15,1.5 15,1.223 14.777,1 14.5,1 Z m 0,3.25 C 1.223,4.25 1,4.473 1,4.75 1,5.027 1.223,5.25 1.5,5.25 H 8.0605469 C 8.5234956,5.0891336 9.0198496,5 9.5351563,5 10.050463,5 10.546684,5.0891731 11.009766,5.25 H 14.5 c 0.277,0 0.5,-0.223 0.5,-0.5 0,-0.277 -0.223,-0.5 -0.5,-0.5 z M 1.4648437,7.5 c -0.277,0 -0.49999995,0.223 -0.49999995,0.5 0,0.277 0.22299995,0.5 0.49999995,0.5 h 3.65625 C 5.2041417,8.1489833 5.3322054,7.8149548 5.4921875,7.5 Z M 1.5,10.75 c -0.277,0 -0.5,0.223 -0.5,0.5 0,0.277 0.223,0.5 0.5,0.5 H 5.5859375 C 5.4090983,11.437048 5.2668971,11.102458 5.1679687,10.75 Z M 1.5,14 C 1.223,14 1,14.223 1,14.5 1,14.777 1.223,15 1.5,15 h 11.378906 l -1,-1 h -1.800781 c -0.1737477,0.04432 -0.353171,0.07227 -0.5429687,0.07227 -0.2704532,0 -0.5351072,-0.02609 -0.7929688,-0.07227 z"
       style="stroke-linecap:round"
       id="path66" /><g
       id="layer1-5"
       transform="matrix(0.60714294,0,0,0.60714294,5.8928559,5.8928559)"
       style="font-variation-settings:normal;display:none;opacity:1;vector-effect:none;fill:none;fill-opacity:1;stroke:#000000;stroke-width:1.64705;stroke-linecap:round;stroke-linejoin:miter;stroke-miterlimit:4;stroke-dasharray:none;stroke-dashoffset:0;stroke-opacity:1;-inkscape-stroke:none;stop-color:#000000;stop-opacity:1"><circle
         style="font-variation-settings:normal;vector-effect:none;fill:none;fill-opacity:1;stroke:#000000;stroke-width:1.64705;stroke-linecap:round;stroke-linejoin:miter;stroke-miterlimit:4;stroke-dasharray:none;stroke-dashoffset:0;stroke-opacity:1;-inkscape-stroke:none;stop-color:#000000;stop-opacity:1"
         id="path41"
         r="5"
         cy="6"
         cx="6" /><path
         style="font-variation-settings:normal;vector-effect:none;fill:none;fill-opacity:1;stroke:#000000;stroke-width:1.64705;stroke-linecap:round;stroke-linejoin:miter;stroke-miterlimit:4;stroke-dasharray:none;stroke-dashoffset:0;stroke-opacity:1;-inkscape-stroke:none;stop-color:#000000;stop-opacity:1"
         d="M 15,15 9.5355339,9.5355339"
         id="path42" /></g><path
       d="M 9.5351563,6 C 8.3454622,6 7.2916831,6.5943502 6.6503906,7.5 6.436374,7.8022398 6.2674955,8.1385882 6.15625,8.5 6.0553611,8.8277656 6,9.1750856 6,9.5351563 6,9.9624285 6.0806864,10.370115 6.2207031,10.75 c 0.1342002,0.364104 0.3230678,0.702895 0.5625,1 0.6489767,0.805297 1.6419501,1.322266 2.7519532,1.322266 0.7938107,0 1.5275157,-0.265767 2.1191407,-0.710938 L 13.292969,14 l 1,1 0.353515,0.353516 c 0.195253,0.195213 0.511779,0.195213 0.707032,0 0.195213,-0.195253 0.195213,-0.511779 0,-0.707032 l -0.466797,-0.464843 c 0.01018,0.01233 0.01836,0.02578 0.02734,0.03906 -0.01797,-0.02656 -0.03795,-0.05162 -0.06055,-0.07422 -0.0113,-0.0113 -0.02283,-0.02302 -0.03516,-0.0332 L 12.457031,11.75 l -0.0957,-0.0957 C 12.566985,11.380982 12.730997,11.075877 12.851563,10.75 12.991977,10.370473 13.072266,9.9622481 13.072266,9.5351563 13.072266,9.1750856 13.017013,8.8277655 12.916016,8.5 12.804676,8.1386739 12.636008,7.8021847 12.421875,7.5 11.78003,6.5942292 10.724944,6 9.5351563,6 Z m 0,1 c 0.5687897,0 1.0900467,0.1870339 1.5117187,0.5 0.347017,0.2575567 0.624878,0.6000108 0.802734,1 0.140391,0.3157302 0.220703,0.6656729 0.220704,1.0351563 0,0.441469 -0.112582,0.8543227 -0.308594,1.2148437 -0.06979,0.128341 -0.148141,0.251705 -0.238281,0.365234 -0.04906,0.06178 -0.101708,0.120885 -0.15625,0.177735 l -0.002,0.002 c -0.01296,0.01041 -0.02521,0.02152 -0.03711,0.0332 -0.0122,0.0122 -0.02448,0.02402 -0.03516,0.03711 C 11.137022,11.515012 10.959971,11.643886 10.769531,11.75 10.404474,11.953412 9.9851222,12.070311 9.5351563,12.070313 9.084986,12.070283 8.6642119,11.953433 8.2988281,11.75 7.8807721,11.51724 7.5353018,11.17067 7.3066406,10.75 7.1108519,10.389806 7,9.9762086 7,9.5351563 7,9.1656728 7.0803126,8.8157302 7.2207031,8.5 7.3985597,8.1000108 7.6764207,7.7575566 8.0234375,7.5 8.4451097,7.187034 8.9663668,7 9.5351563,7 Z"
       style="paint-order:stroke fill markers"
       id="path65" /></g></svg>
