<?xml version="1.0" encoding="UTF-8" standalone="no"?>
<!-- Created with Inkscape (http://www.inkscape.org/) -->

<svg
   width="16"
   height="16"
   viewBox="0 0 16 16"
   version="1.1"
   id="svg1"
   sodipodi:docname="two_users_add.svg"
   inkscape:version="1.4 (e7c3feb100, 2024-10-09)"
   xml:space="preserve"
   xmlns:inkscape="http://www.inkscape.org/namespaces/inkscape"
   xmlns:sodipodi="http://sodipodi.sourceforge.net/DTD/sodipodi-0.dtd"
   xmlns="http://www.w3.org/2000/svg"
   xmlns:svg="http://www.w3.org/2000/svg"><sodipodi:namedview
     id="namedview1"
     pagecolor="#ffffff"
     bordercolor="#000000"
     borderopacity="0.25"
     inkscape:showpageshadow="2"
     inkscape:pageopacity="0.0"
     inkscape:pagecheckerboard="0"
     inkscape:deskcolor="#d1d1d1"
     inkscape:document-units="px"
     showgrid="true"
     inkscape:zoom="11.313709"
     inkscape:cx="-2.1213203"
     inkscape:cy="4.4636115"
     inkscape:window-width="1920"
     inkscape:window-height="1050"
     inkscape:window-x="3840"
     inkscape:window-y="0"
     inkscape:window-maximized="1"
     inkscape:current-layer="layer1"
     showguides="true"><inkscape:grid
       id="grid1"
       units="px"
       originx="0"
       originy="0"
       spacingx="1"
       spacingy="1"
       empcolor="#0099e5"
       empopacity="0.30196078"
       color="#0099e5"
       opacity="0.14901961"
       empspacing="4"
       enabled="true"
       visible="true" /></sodipodi:namedview><defs
     id="defs1"><inkscape:path-effect
       effect="mirror_symmetry"
       start_point="8,11"
       end_point="8,15"
       center_point="8,13"
       id="path-effect52"
       is_visible="true"
       lpeversion="1.2"
       lpesatellites=""
       mode="free"
       discard_orig_path="false"
       fuse_paths="false"
       oposite_fuse="false"
       split_items="false"
       split_open="false"
       link_styles="false" /><inkscape:path-effect
       effect="mirror_symmetry"
       start_point="8,9.59375"
       end_point="8,15.111111"
       center_point="8,12.352431"
       id="path-effect51"
       is_visible="true"
       lpeversion="1.2"
       lpesatellites=""
       mode="free"
       discard_orig_path="false"
       fuse_paths="false"
       oposite_fuse="false"
       split_items="false"
       split_open="false"
       link_styles="false" /><inkscape:path-effect
       effect="mirror_symmetry"
       start_point="8,1"
       end_point="8,5"
       center_point="8,3"
       id="path-effect44"
       is_visible="true"
       lpeversion="1.2"
       lpesatellites=""
       mode="free"
       discard_orig_path="false"
       fuse_paths="false"
       oposite_fuse="false"
       split_items="false"
       split_open="false"
       link_styles="false" /><inkscape:path-effect
       effect="mirror_symmetry"
       start_point="8,3.6415172"
       end_point="8,9.641517"
       center_point="8,6.6415171"
       id="path-effect42"
       is_visible="true"
       lpeversion="1.2"
       lpesatellites=""
       mode="free"
       discard_orig_path="false"
       fuse_paths="false"
       oposite_fuse="false"
       split_items="false"
       split_open="false"
       link_styles="false" /><inkscape:path-effect
       effect="mirror_symmetry"
       start_point="8,7"
       end_point="8,13"
       center_point="8,10"
       id="path-effect17"
       is_visible="true"
       lpeversion="1.2"
       lpesatellites=""
       mode="free"
       discard_orig_path="false"
       fuse_paths="false"
       oposite_fuse="false"
       split_items="false"
       split_open="false"
       link_styles="false" /><inkscape:path-effect
       effect="fillet_chamfer"
       id="path-effect5"
       is_visible="true"
       lpeversion="1"
       nodesatellites_param="F,0,0,1,0,0,0,1 @ F,0,0,1,0,0,0,1 @ F,0,0,1,0,0.5,0,1 @ F,0,0,1,0,0,0,1 @ F,0,0,1,0,0,0,1 @ F,0,0,1,0,0.5,0,1"
       radius="0.5"
       unit="px"
       method="auto"
       mode="F"
       chamfer_steps="1"
       flexible="false"
       use_knot_distance="true"
       apply_no_radius="true"
       apply_with_radius="true"
       only_selected="false"
       hide_knots="false" /><inkscape:path-effect
       effect="copy_rotate"
       starting_point="9.9697639,8"
       origin="8,8"
       id="path-effect1"
       is_visible="true"
       lpeversion="1.2"
       lpesatellites=""
       method="normal"
       num_copies="4"
       starting_angle="0"
       rotation_angle="90"
       gap="-0.01"
       copies_to_360="true"
       mirror_copies="false"
       split_items="false"
       link_styles="false" /><inkscape:path-effect
       effect="mirror_symmetry"
       start_point="8,1.0711951"
       end_point="8,9.1450673"
       center_point="8,5.1081312"
       id="path-effect68"
       is_visible="true"
       lpeversion="1.2"
       lpesatellites=""
       mode="free"
       discard_orig_path="false"
       fuse_paths="false"
       oposite_fuse="false"
       split_items="false"
       split_open="false"
       link_styles="false" /><inkscape:path-effect
       effect="fillet_chamfer"
       id="path-effect46"
       is_visible="true"
       lpeversion="1"
       nodesatellites_param="F,0,0,1,0,0,0,1 @ F,0,0,1,0,0,0,1 @ F,0,0,1,0,0,0,1 @ F,0,0,1,0,0,0,1"
       radius="0"
       unit="px"
       method="auto"
       mode="F"
       chamfer_steps="1"
       flexible="false"
       use_knot_distance="true"
       apply_no_radius="true"
       apply_with_radius="true"
       only_selected="false"
       hide_knots="false" /><inkscape:path-effect
       effect="fillet_chamfer"
       id="path-effect41"
       is_visible="true"
       lpeversion="1"
       nodesatellites_param="F,0,0,1,0,0.5,0,1 @ F,0,0,1,0,0.5,0,1 @ F,0,0,1,0,0.5,0,1 @ F,0,0,1,0,0.5,0,1 @ F,0,0,1,0,0.5,0,1 @ F,0,0,1,0,0.5,0,1"
       radius="0.5"
       unit="px"
       method="auto"
       mode="F"
       chamfer_steps="1"
       flexible="false"
       use_knot_distance="true"
       apply_no_radius="true"
       apply_with_radius="true"
       only_selected="false"
       hide_knots="false" /><inkscape:path-effect
       effect="mirror_symmetry"
       start_point="3.4183552,5"
       end_point="15,5"
       center_point="9.2091776,5"
       id="path-effect40"
       is_visible="true"
       lpeversion="1.2"
       lpesatellites=""
       mode="free"
       discard_orig_path="false"
       fuse_paths="false"
       oposite_fuse="false"
       split_items="false"
       split_open="false"
       link_styles="false" /><inkscape:path-effect
       effect="fillet_chamfer"
       id="path-effect39"
       is_visible="true"
       lpeversion="1"
       nodesatellites_param="F,0,0,1,0,0.5,0,1 @ F,0,0,1,0,0.5,0,1 @ F,0,0,1,0,0.5,0,1 @ F,0,0,1,0,0.5,0,1 @ F,0,0,1,0,0.5,0,1 @ F,0,0,1,0,0.5,0,1"
       radius="0.5"
       unit="px"
       method="auto"
       mode="F"
       chamfer_steps="1"
       flexible="false"
       use_knot_distance="true"
       apply_no_radius="true"
       apply_with_radius="true"
       only_selected="false"
       hide_knots="false" /><inkscape:path-effect
       effect="fillet_chamfer"
       id="path-effect38"
       is_visible="true"
       lpeversion="1"
       nodesatellites_param="F,0,0,1,0,0,0,1 @ F,0,0,1,0,0,0,1 @ F,0,0,1,0,0,0,1 @ F,0,0,1,0,0,0,1 | F,0,0,1,0,0,0,1 @ F,0,0,1,0,0,0,1 @ F,0,0,1,0,0,0,1 @ F,0,0,1,0,0,0,1"
       radius="1"
       unit="px"
       method="auto"
       mode="F"
       chamfer_steps="1"
       flexible="false"
       use_knot_distance="true"
       apply_no_radius="true"
       apply_with_radius="true"
       only_selected="false"
       hide_knots="false" /><inkscape:path-effect
       effect="mirror_symmetry"
       start_point="3,4"
       end_point="15,4"
       center_point="9,4"
       id="path-effect37"
       is_visible="true"
       lpeversion="1.2"
       lpesatellites=""
       mode="free"
       discard_orig_path="false"
       fuse_paths="false"
       oposite_fuse="false"
       split_items="false"
       split_open="false"
       link_styles="false" /><inkscape:path-effect
       effect="mirror_symmetry"
       start_point="8,0"
       end_point="8,9"
       center_point="8,4.5"
       id="path-effect36"
       is_visible="true"
       lpeversion="1.2"
       lpesatellites=""
       mode="free"
       discard_orig_path="false"
       fuse_paths="false"
       oposite_fuse="false"
       split_items="false"
       split_open="false"
       link_styles="false" /><inkscape:path-effect
       effect="mirror_symmetry"
       start_point="12.933222,12.362634"
       end_point="12.933222,19.82211"
       center_point="12.933222,16.092372"
       id="path-effect35"
       is_visible="true"
       lpeversion="1.2"
       lpesatellites=""
       mode="free"
       discard_orig_path="false"
       fuse_paths="false"
       oposite_fuse="false"
       split_items="false"
       split_open="false"
       link_styles="false" /><inkscape:path-effect
       effect="mirror_symmetry"
       start_point="-0.1742155,6.6237859"
       end_point="4.8257845,6.6237859"
       center_point="2.3257845,6.6237859"
       id="path-effect34"
       is_visible="true"
       lpeversion="1.2"
       lpesatellites=""
       mode="free"
       discard_orig_path="false"
       fuse_paths="false"
       oposite_fuse="false"
       split_items="false"
       split_open="false"
       link_styles="false" /><inkscape:path-effect
       effect="mirror_symmetry"
       start_point="-7.6666669,15.624056"
       end_point="2.9999998,14.422205"
       center_point="-2.3333335,15.023131"
       id="path-effect33"
       is_visible="true"
       lpeversion="1.2"
       lpesatellites=""
       mode="free"
       discard_orig_path="false"
       fuse_paths="false"
       oposite_fuse="false"
       split_items="false"
       split_open="false"
       link_styles="false" /><inkscape:path-effect
       effect="mirror_symmetry"
       start_point="8,1"
       end_point="8,15.02602"
       center_point="8,8.01301"
       id="path-effect32"
       is_visible="true"
       lpeversion="1.2"
       lpesatellites=""
       mode="free"
       discard_orig_path="false"
       fuse_paths="false"
       oposite_fuse="false"
       split_items="false"
       split_open="false"
       link_styles="false" /><inkscape:path-effect
       effect="fillet_chamfer"
       id="path-effect28"
       is_visible="true"
       lpeversion="1"
       nodesatellites_param="F,0,0,1,0,1,0,1 @ F,0,0,1,0,1,0,1 @ F,0,0,1,0,0,0,1 @ F,0,0,1,0,0,0,1 | F,0,0,1,0,1,0,1 @ F,0,0,1,0,1,0,1 @ F,0,0,1,0,0,0,1 @ F,0,0,1,0,0,0,1"
       radius="1"
       unit="px"
       method="auto"
       mode="F"
       chamfer_steps="1"
       flexible="false"
       use_knot_distance="true"
       apply_no_radius="true"
       apply_with_radius="true"
       only_selected="false"
       hide_knots="false" /><inkscape:path-effect
       effect="mirror_symmetry"
       start_point="0,8"
       end_point="16,8"
       center_point="8,8"
       id="path-effect27"
       is_visible="true"
       lpeversion="1.2"
       lpesatellites=""
       mode="free"
       discard_orig_path="false"
       fuse_paths="false"
       oposite_fuse="false"
       split_items="false"
       split_open="false"
       link_styles="false" /><inkscape:path-effect
       effect="fillet_chamfer"
       id="path-effect18"
       is_visible="true"
       lpeversion="1"
       nodesatellites_param="F,0,0,1,0,1,0,1 @ F,0,0,1,0,1,0,1 @ F,0,0,1,0,1,0,1"
       radius="1"
       unit="px"
       method="auto"
       mode="F"
       chamfer_steps="1"
       flexible="false"
       use_knot_distance="true"
       apply_no_radius="true"
       apply_with_radius="true"
       only_selected="false"
       hide_knots="false" /><inkscape:path-effect
       effect="fillet_chamfer"
       id="path-effect16"
       is_visible="true"
       lpeversion="1"
       nodesatellites_param="F,0,0,1,0,1,0,1 @ F,0,0,1,0,1,0,1 @ F,0,0,1,0,1,0,1"
       radius="1"
       unit="px"
       method="auto"
       mode="F"
       chamfer_steps="1"
       flexible="false"
       use_knot_distance="true"
       apply_no_radius="true"
       apply_with_radius="true"
       only_selected="false"
       hide_knots="false" /></defs><path
     d="M 10.199219,1 C 9.0397257,1.0002157 8.099825,1.9401165 8.0996094,3.0996094 8.099825,4.2591023 9.0397257,5.1990031 10.199219,5.1992187 11.359474,5.2000821 12.300566,4.2598652 12.300781,3.0996094 12.300566,1.9393535 11.359474,0.99913669 10.199219,1 Z"
     style="stroke-linecap:round;stroke-linejoin:round"
     id="path115" /><path
     d="M 8.21875,6.1328125 C 8.3974034,6.4850141 8.5,6.8808988 8.5,7.3007812 c 0,0.092675 -0.00604,0.1832225 -0.015625,0.2734375 -0.00291,0.027413 -0.006,0.054875 -0.00977,0.082031 -0.011858,0.085432 -0.028795,0.1693438 -0.048828,0.2519531 -0.00475,0.019596 -0.00848,0.039172 -0.013672,0.058594 -0.1057808,0.395618 -0.3036029,0.754497 -0.5683594,1.0527344 -0.063457,0.071331 -0.1322992,0.14105 -0.203125,0.2050781 0,0 -0.00195,0.00195 -0.00195,0.00195 -0.074224,0.066818 -0.1548069,0.1313801 -0.2363282,0.1894531 0,0 -0.00195,0.00195 -0.00195,0.00195 V 9.734375 c 0.2190826,0.034709 0.4497002,0.077406 0.6875,0.1328125 0.1314239,0.030286 0.2640867,0.063177 0.3984375,0.1015625 0.3538028,0.101087 0.7130237,0.230682 1.0546875,0.400391 0.038481,0.01919 0.077248,0.03833 0.1152344,0.05859 0.2022443,0.107512 0.39612,0.231168 0.578125,0.373047 H 11.5 V 10.5 c 0,-0.5288243 0.423887,-0.9735424 0.949219,-1 0.04128,-0.00208 0.05858,0 0.05078,0 0.06143,0 0.121214,0.00835 0.179688,0.019531 0.01393,0.00262 0.02728,0.00656 0.04101,0.00977 0.05019,0.011912 0.09934,0.025605 0.146485,0.044922 0.0057,0.0023 0.01195,0.00346 0.01758,0.00586 0.01107,0.00475 0.02233,0.012444 0.0332,0.017578 0.0276,0.013135 0.05579,0.025537 0.08203,0.041016 V 8 c 0.306818,0.4373117 0.619481,0.8306791 0.699219,2.800781 h 1.40039 V 8.6992188 c 0,-2.8 -4.90039,-2.7988282 -4.90039,-2.7988282 0,0 -0.9304505,7.903e-4 -1.980469,0.2324219 z"
     style="stroke-linecap:round;stroke-linejoin:round"
     id="path116" /><g
     inkscape:label="Layer 1"
     inkscape:groupmode="layer"
     id="layer1"><path
       d="M 5.9003906,5.1992187 C 4.7401348,5.1994343 3.7999178,6.1405257 3.8007813,7.3007812 3.8009968,8.4602742 4.7408977,9.400175 5.9003906,9.4003906 7.0598835,9.400175 7.9997843,8.4602741 8,7.3007812 8.0008633,6.1405257 7.0606465,5.1994344 5.9003906,5.1992187 Z"
       style="stroke-linecap:round;stroke-linejoin:round"
       id="path114" /><path
       d="M 10.28125,11.527344 C 9.0221542,10.101457 5.9003906,10.099609 5.9003906,10.099609 5.9003906,10.099609 1,10.100391 1,12.900391 V 15 h 1.4003906 c 0.079738,-1.970102 0.3924008,-2.36347 0.6992188,-2.800781 V 15 H 5.9003906 8.6992188 V 12.199219 C 9.0060365,12.63653 9.3206529,13.029898 9.4003906,15 H 10.800781 V 13.5 H 10.5 c -0.5453514,0 -1,-0.454649 -1,-1 0,-0.06498 0.00721,-0.127741 0.019531,-0.189453 0.00359,-0.01809 0.01105,-0.03498 0.015625,-0.05273 0.010465,-0.04038 0.021783,-0.08082 0.037109,-0.119141 0.010209,-0.02567 0.022915,-0.04959 0.035156,-0.07422 0.013596,-0.02724 0.027014,-0.05428 0.042969,-0.08008 0.017354,-0.0282 0.034719,-0.05571 0.054687,-0.08203 0.014921,-0.01958 0.030591,-0.0382 0.046875,-0.05664 0.1375352,-0.156592 0.3212949,-0.270336 0.5292969,-0.318359 z"
       style="stroke-linecap:round;stroke-linejoin:round"
       id="path113" /><path
       d="m 12.474609,10 c -0.09839,0.005 -0.190383,0.04019 -0.265625,0.09375 0,0 -0.002,0.002 -0.002,0.002 -0.02437,0.01775 -0.04761,0.03877 -0.06836,0.06055 -0.0181,0.01912 -0.03585,0.03875 -0.05078,0.06055 -0.0079,0.01163 -0.01455,0.02481 -0.02149,0.03711 -0.0085,0.01511 -0.01647,0.03084 -0.02344,0.04687 -0.0039,0.009 -0.0083,0.01805 -0.01172,0.02734 C 12.01164,10.381838 12,10.439399 12,10.5 V 12 h -1.5 c -0.02928,0 -0.05806,0.003 -0.08594,0.0078 -0.01664,0.0029 -0.03282,0.0072 -0.04883,0.01172 -0.0086,0.0024 -0.017,0.005 -0.02539,0.0078 -0.01872,0.0064 -0.03704,0.01495 -0.05469,0.02344 0,0 -0.002,0 -0.002,0 -0.04326,0.02083 -0.082,0.04825 -0.117187,0.08008 -0.02271,0.02059 -0.04378,0.04381 -0.0625,0.06836 C 10.039846,12.283112 10,12.38609 10,12.5 c 0,0.09254 0.02684,0.177769 0.07031,0.251953 0.02172,0.03656 0.04624,0.07163 0.07617,0.101563 0.06124,0.06124 0.138142,0.106037 0.22461,0.128906 0.01219,0.0032 0.02457,0.0055 0.03711,0.0078 C 10.437904,12.995694 10.468674,13 10.5,13 H 12 v 1.5 c 0,0.09254 0.02684,0.177769 0.07031,0.251953 0.02172,0.03656 0.04624,0.07163 0.07617,0.101563 0.06124,0.06124 0.138142,0.106037 0.22461,0.128906 0.01219,0.0032 0.02457,0.0055 0.03711,0.0078 C 12.437904,14.995694 12.468674,15 12.5,15 12.777,15 13,14.777 13,14.5 V 13 h 1.5 C 14.777,13 15,12.777 15,12.5 15,12.223 14.777,12 14.5,12 H 13 V 10.5 C 13,10.223 12.777,10 12.5,10 c -0.0087,0 -0.01685,-4.304e-4 -0.02539,0 z"
       style="baseline-shift:baseline;display:inline;overflow:visible;vector-effect:none;stroke-linecap:round;stroke-linejoin:round;paint-order:stroke fill markers;enable-background:accumulate;stop-color:#000000;stop-opacity:1"
       id="path112" /></g></svg>
