<svg xmlns="http://www.w3.org/2000/svg" xml:space="preserve" width="16" height="16"><path d="M8 1a7 7 0 1 0 0 14A7 7 0 0 0 8 1m3 3.531-.826 4.198a2.292 2.292 0 0 1-1.143 1.318L5 11.469l.74-3.856A2.29 2.29 0 0 1 7.293 5.82Z" style="baseline-shift:baseline;display:inline;overflow:visible;vector-effect:none;stroke-linecap:round;stroke-linejoin:round;paint-order:stroke fill markers;stop-color:#000;stop-opacity:1"/><path d="M8 7a1 1 0 0 0-.383.076 1 1 0 0 0-.54.543A1 1 0 0 0 7 8a1 1 0 0 0 .076.383 1 1 0 0 0 .543.54A1 1 0 0 0 8 9a1 1 0 0 0 .383-.076 1 1 0 0 0 .54-.543A1 1 0 0 0 9 8a1 1 0 0 0-.006-.104l-.008-.062-.011-.053a1 1 0 0 0-.051-.164l-.016-.03a1 1 0 0 0-.062-.116l-.034-.051a1 1 0 0 0-.232-.232l-.05-.034a1 1 0 0 0-.118-.062l-.03-.016a1 1 0 0 0-.163-.05l-.053-.012-.062-.008h-.002A1 1 0 0 0 8 7" style="baseline-shift:baseline;display:inline;overflow:visible;vector-effect:none;stop-color:#000;stop-opacity:1"/></svg>