<svg xmlns="http://www.w3.org/2000/svg" xml:space="preserve" width="16" height="16"><g style="stroke-width:.821372"><path d="M9.268 2.643c-1.093 0-1.973.88-1.973 1.972v5.913q.002.15.024.294A1.966 1.966 0 0 0 9.268 12.5h2.958c1.092 0 1.971-.88 1.971-1.972v-3.92h-2.186c-.97 0-1.778-.808-1.778-1.778V2.643Z" style="stroke-linecap:round;stroke-linejoin:round;paint-order:stroke fill markers;fill:#000;fill-opacity:1" transform="matrix(1.21756 0 0 1.2174 -4.122 -.217)"/></g><path d="M5.236 1c-1.33 0-2.4 1.07-2.4 2.4v7.2c0 .772.362 1.456.926 1.894V5.4a3.413 3.413 0 0 1 3.4-3.398h3.6l.029.002A2.4 2.4 0 0 0 8.838 1H8.61Z" style="fill:#000;stroke-linecap:round;stroke-linejoin:round;paint-order:stroke fill markers;fill-opacity:1"/><path d="M9.338 3v2.662c0 .645.52 1.164 1.164 1.164h2.662l-.926-.926-.998-.998Z" style="display:inline;fill:#000;stroke-width:2;stroke-linecap:round;stroke-linejoin:round;paint-order:stroke fill markers;fill-opacity:1"/></svg>