<svg xmlns="http://www.w3.org/2000/svg" xml:space="preserve" width="16" height="16"><path d="M15 10H8.5v5H13c1.108 0 2-.892 2-2zM7.5 15v-5H1v3c0 1.108.892 2 2 2zM3 5c-1.108 0-2 .892-2 2v2h14V7c0-1.108-.892-2-2-2Z" style="baseline-shift:baseline;display:inline;overflow:visible;vector-effect:none;stroke-linecap:round;stroke-linejoin:round;paint-order:stroke fill markers;stop-color:#000;stop-opacity:1"/><path d="M6.547 5.663S2.027 3.467 4 1.656C5.974-.154 8 5 8 5m1.453.663S13.973 3.467 12 1.656C10.026-.154 8 5 8 5" style="fill:none;stroke:#000;stroke-width:1;stroke-linecap:round;stroke-linejoin:round;stroke-dasharray:none;stroke-opacity:1;paint-order:stroke fill markers"/></svg>