<svg xmlns="http://www.w3.org/2000/svg" xml:space="preserve" width="16" height="16"><path d="M13.58 7.5q.242.474.37 1h.515a.499.499 0 1 0 0-1zm.166 3.25c-.092.199-.189.395-.281.594l.406.406h.629a.499.499 0 1 0 0-1zM1.5 1a.499.499 0 1 0 0 1h13a.499.499 0 1 0 0-1Zm0 3.25a.499.499 0 1 0 0 1h6.56a4.5 4.5 0 0 1 2.95 0h3.49a.499.499 0 1 0 0-1zM1.465 7.5a.499.499 0 1 0 0 1H5.12c.083-.351.211-.685.371-1Zm.035 3.25a.499.499 0 1 0 0 1h4.086a4.5 4.5 0 0 1-.418-1Zm0 3.25a.499.499 0 1 0 0 1h11.379l-1-1h-1.8a2.2 2.2 0 0 1-.544.072Q9.13 14.07 8.742 14z" style="stroke-linecap:round"/><path d="M9.535 6c-1.19 0-2.243.594-2.885 1.5A3.53 3.53 0 0 0 6 9.535c0 .427.08.835.22 1.215a3.53 3.53 0 0 0 3.314 2.322c.795 0 1.529-.266 2.12-.71L13.293 14l1 1 .353.354a.5.5 0 0 0 .708-.708l-.467-.464q.014.018.027.039a.5.5 0 0 0-.06-.075q-.017-.017-.036-.033l-2.361-2.363-.096-.096a3.6 3.6 0 0 0 .49-.904 3.49 3.49 0 0 0-.43-3.25A3.54 3.54 0 0 0 9.536 6m0 1c.569 0 1.09.187 1.512.5a2.52 2.52 0 0 1 1.023 2.035c0 .442-.112.854-.308 1.215a2.5 2.5 0 0 1-.395.543l-.002.002-.037.033-.035.037a2.54 2.54 0 0 1-1.758.705A2.532 2.532 0 0 1 7.221 8.5 2.525 2.525 0 0 1 9.535 7" style="paint-order:stroke fill markers"/></svg>