<svg xmlns="http://www.w3.org/2000/svg" xml:space="preserve" width="16" height="16"><path d="M3 1c-1.108 0-2 .892-2 2v10c0 1.108.892 2 2 2h7v-2c0-1.645 1.355-3 3-3h2V3c0-1.108-.892-2-2-2Z" style="stroke-linecap:round;stroke-linejoin:round"/><path d="M5 4.642a1 1 0 1 1-2 0 1 1 0 0 1 2 0m6 0a1 1 0 1 0 2 0 1 1 0 0 0-2 0" style="fill:#fff;stroke:none"/><path d="M8 9.642C6.342 9.642 5 8.446 5 7m3 2.642c1.658 0 3-1.196 3-2.642" style="fill:none;stroke:#fff;stroke-linecap:round;stroke-linejoin:round"/><path d="M15 11h-2c-1.108 0-2 .892-2 2v2z" style="stroke-width:2;stroke-linecap:round;stroke-linejoin:round;paint-order:stroke fill markers"/></svg>