<svg xmlns="http://www.w3.org/2000/svg" xml:space="preserve" width="16" height="16"><g style="stroke:#fff;stroke-width:1.42857;stroke-dasharray:none;stroke-opacity:1;paint-order:stroke fill markers"><path d="M8 1a3 3 0 0 0-3 3 3 3 0 0 0 3 3 3 3 0 0 0 3-3 3 3 0 0 0-3-3M8 8s-7 0-7 4v3h2c.114-2.814.562-3.375 1-4v4h8v-4c.438.625.886 1.186 1 4h2v-3c0-4-7-4-7-4" style="stroke:#fff;stroke-width:1.42857;stroke-linecap:round;stroke-linejoin:round;stroke-dasharray:none;stroke-opacity:1;paint-order:stroke fill markers" transform="matrix(.7 0 0 .7 4.6 .3)"/></g><g style="stroke-width:1.42857143;stroke:#fff;stroke-opacity:1;stroke-dasharray:none;paint-order:stroke fill markers"><path d="M8 1a3 3 0 0 0-3 3 3 3 0 0 0 3 3 3 3 0 0 0 3-3 3 3 0 0 0-3-3M8 8s-7 0-7 4v3h2c.114-2.814.562-3.375 1-4v4h8v-4c.438.625.886 1.186 1 4h2v-3c0-4-7-4-7-4" style="stroke-width:1.42857143;stroke-linecap:round;stroke-linejoin:round;paint-order:stroke fill markers;stroke:#fff;stroke-opacity:1;stroke-dasharray:none" transform="matrix(.7 0 0 .7 .3 4.5)"/></g></svg>