<svg xmlns="http://www.w3.org/2000/svg" xml:space="preserve" width="16" height="16"><path d="M7.127 1c-.277 0-.5.223-.5.5v1.016c-.552.139-1.08.36-1.566.656l-.649-.649a.5.5 0 0 0-.707 0L2.471 3.758a.5.5 0 0 0 0 .707l.66.66a5.7 5.7 0 0 0-.647 1.629h-.857c-.277 0-.5.223-.5.5V9c0 .277.223.5.5.5h.92c.156.567.399 1.106.72 1.598l-.617.617a.5.5 0 0 0 0 .707l1.235 1.234a.5.5 0 0 0 .707 0l.691-.691c.5.272 1.04.468 1.598.58v.955c0 .277.223.5.5.5h1.746c.277 0 .5-.223.5-.5v-1.078a5.7 5.7 0 0 0 1.47-.69l.745.745a.5.5 0 0 0 .707 0l1.234-1.235a.5.5 0 0 0 0-.707l-.818-.818c.25-.463.436-.958.55-1.47h1.112c.277 0 .5-.224.5-.5V7c0-.277-.223-.5-.5-.5h-1.158c-.14-.511-.351-1-.627-1.453l.762-.762a.5.5 0 0 0 0-.707l-1.235-1.234a.5.5 0 0 0-.707 0l-.775.775A5.7 5.7 0 0 0 9.373 2.5v-1c0-.277-.223-.5-.5-.5zM8 5.234a2.765 2.765 0 1 1 0 5.532 2.765 2.765 0 1 1 0-5.532" style="stroke-linecap:round;stroke-linejoin:round;paint-order:stroke fill markers"/></svg>