<svg xmlns="http://www.w3.org/2000/svg" xml:space="preserve" width="16" height="16"><defs><clipPath id="c" clipPathUnits="userSpaceOnUse"><rect width="7" height="14" x="8" y="1" rx="0" ry="0" style="fill:#000;stroke:none;stroke-linecap:round;stroke-linejoin:round;stroke-opacity:1;paint-order:stroke fill markers"/></clipPath><clipPath id="b" clipPathUnits="userSpaceOnUse"><rect width="7" height="14" x="8" y="1" rx="0" ry="0" style="fill:#000;stroke:none;stroke-linecap:round;stroke-linejoin:round;stroke-opacity:1;paint-order:stroke fill markers"/></clipPath><clipPath id="a" clipPathUnits="userSpaceOnUse"><rect width="7" height="14" x="8" y="1" rx="0" ry="0" style="fill:#000;stroke:none;stroke-linecap:round;stroke-linejoin:round;stroke-opacity:1;paint-order:stroke fill markers"/></clipPath></defs><g transform="matrix(1.08396 0 0 1.08426 -.298 -.674)"><path d="M1 8V6.5a.63.63 128.32 0 1 .486-.616l1.528-.362a1.8 1.8 151.209 0 0 .844-.464l2.784-2.71A.211.211 22.889 0 1 7 2.5V8Zm0 0v1.5a.63.63 51.68 0 0 .486.616l1.528.362a1.8 1.8 28.791 0 1 .844.464l2.784 2.71A.211.211 157.111 0 0 7 13.5V8Z" style="fill:#000;stroke:none;stroke-width:.922416;stroke-linecap:round;stroke-linejoin:round;stroke-opacity:1;paint-order:stroke fill markers"/><circle cx="8" cy="8" r="1.5" clip-path="url(#a)" style="fill:none;stroke:#000;stroke-width:.922416;stroke-linecap:round;stroke-linejoin:round;stroke-opacity:1;paint-order:stroke fill markers"/><circle cx="8" cy="8" r="3.534" clip-path="url(#b)" style="fill:none;stroke:#000;stroke-width:.922416;stroke-linecap:round;stroke-linejoin:round;stroke-opacity:1;paint-order:stroke fill markers"/><circle cx="8" cy="8" r="5.531" clip-path="url(#c)" style="fill:none;stroke:#000;stroke-width:.922416;stroke-linecap:round;stroke-linejoin:round;stroke-opacity:1;paint-order:stroke fill markers"/></g></svg>