<svg xmlns="http://www.w3.org/2000/svg" xml:space="preserve" width="16" height="16"><path d="M8 1a3 3 0 1 0 0 6 3 3 0 0 0 0-6M8 8s-7 0-7 4v3h2c.114-2.814.562-3.375 1-4v4h7.638999999999999a1 1 0 0 1-.139-.5v-1h-1c-.545 0-1-.455-1-1a1.01 1.01 0 0 1 1-1h1v-1a1.01 1.01 0 0 1 1-1c.545 0 1 .455 1 1v1h1a1 1 0 0 1 .479.127C14.557 8 8 8 8 8m7 5.361a1 1 0 0 1-.5.139h-1v1a1 1 0 0 1-.139.5H15Z" style="baseline-shift:baseline;display:inline;overflow:visible;vector-effect:none;stroke-linecap:round;stroke-linejoin:round;paint-order:stroke fill markers;stop-color:#000;stop-opacity:1"/><path d="M12.45 9.5c-.526.026-.95.471-.95 1v1h-1q.011-.002-.05 0c-.526.026-.95.471-.95 1 0 .545.455 1 1 1h1v1c0 .545.455 1 1 1s1-.455 1-1v-1h1c.545 0 1-.455 1-1s-.455-1-1-1h-1v-1c0-.545-.455-1-1-1q.011-.002-.05 0m.025.5h.025c.277 0 .5.223.5.5V12h1.5a.499.499 0 1 1 0 1H13v1.5a.499.499 0 1 1-1 0V13h-1.5a.5.5 0 0 1-.025-1H12v-1.5a.5.5 0 0 1 .475-.5" style="fill:#fff;stroke-linecap:round;stroke-linejoin:round;paint-order:stroke fill markers"/><path d="M12.475 10a.5.5 0 0 0-.475.5V12h-1.525a.5.5 0 0 0 .025 1H12v1.5a.499.499 0 1 0 1 0V13h1.5a.499.499 0 1 0 0-1H13v-1.5c0-.277-.223-.5-.5-.5z" style="stroke-linecap:round;stroke-linejoin:round;paint-order:stroke fill markers"/></svg>